# xmcd
#
# Track frame offsets: 
#        150
#        26508
#        53713
#        77252
#        100864
#        130449
#        154515
#        187836
#        214561
#        242845
#        265279
#        290131
#
# Disc length: 4239 seconds
#
# Revision: 0
# Processed by: cddbd v1.5.2PL0 Copyright (c) Steve Scherf et al.
# Submitted via: ExactAudioCopy v1.3
#
DISCID=9c108d0c
DTITLE=Gary Eisenbraun - Blink Of An Eye
DYEAR=2019
DGENRE=Blues Rock
TTITLE0=Blink Of An Eye
TTITLE1=Can't Think About Love
TTITLE2=Right Down The Middle
TTITLE3=Easier Said Than Done
TTITLE4=Time Catching Up With Me
TTITLE5=Hiding In Plain Sight
TTITLE6=Drive Lt Into The Ground
TTITLE7=Coming Up For Air
TTITLE8=One More Shot To My Heart
TTITLE9=Another Lover On The Run
TTITLE10=Pale Moon
TTITLE11=Wind Me Up
EXTD=
EXTT0=
EXTT1=
EXTT2=
EXTT3=
EXTT4=
EXTT5=
EXTT6=
EXTT7=
EXTT8=
EXTT9=
EXTT10=
EXTT11=
PLAYORDER=
